<svg width="1334" height="2063" viewBox="0 0 1334 2063" fill="none" xmlns="http://www.w3.org/2000/svg">
<path d="M915.608 1697.88C914.72 1686.87 903.473 1677.34 884.428 1669.7C905.125 1658.29 916.574 1646.06 915.608 1634.06C912.681 1597.76 797.718 1577.41 658.831 1588.61C519.944 1599.8 409.726 1638.31 412.654 1674.61C413.54 1685.62 424.789 1695.15 443.833 1702.79C423.135 1714.21 411.686 1726.44 412.654 1738.44C413.54 1749.45 424.789 1758.98 443.833 1766.62C423.135 1778.03 411.686 1790.26 412.654 1802.26C413.54 1813.27 424.789 1822.8 443.833 1830.44C423.135 1841.86 411.686 1854.09 412.654 1866.08C413.949 1882.14 437.184 1895.07 474.686 1903.53C474.199 1915.4 474.471 1928.4 475.636 1942.76C481.069 2009.65 556.312 2062.1 655.829 2062.1C755.349 2062.1 841.481 1990.59 842.46 1923.48C842.699 1907.04 841.999 1892.56 840.511 1879.7C888.127 1863.8 917.127 1844.37 915.609 1825.53C914.721 1814.52 903.474 1804.99 884.429 1797.35C905.126 1785.94 916.575 1773.71 915.609 1761.71C914.721 1750.7 903.474 1741.17 884.429 1733.53C905.126 1722.11 916.575 1709.88 915.608 1697.88Z" fill="url(#paint0_linear_23_233)"/>
<path d="M594.564 1917.98C553.317 1917.98 515.575 1914.94 484.391 1908.97C482.581 1908.63 481.396 1906.88 481.741 1905.07C482.087 1903.26 483.827 1902.07 485.644 1902.42C534.44 1911.76 599.613 1913.82 669.161 1908.21C726.069 1903.62 779.289 1894.45 823.067 1881.67C824.84 1881.15 826.689 1882.17 827.203 1883.94C827.72 1885.71 826.705 1887.56 824.936 1888.07C780.729 1900.97 727.048 1910.24 669.696 1914.86C643.865 1916.95 618.619 1917.98 594.564 1917.98Z" fill="url(#paint1_linear_23_233)"/>
<path d="M595.258 1854.1C541.665 1854.1 493.773 1849.06 459.991 1839.43C458.22 1838.93 457.194 1837.09 457.696 1835.31C458.203 1833.54 460.041 1832.52 461.818 1833.02C509.956 1846.73 587.466 1850.97 669.162 1844.39C749.973 1837.87 825.339 1821.48 870.767 1800.52C872.442 1799.75 874.423 1800.48 875.195 1802.15C875.965 1803.83 875.235 1805.81 873.563 1806.58C827.459 1827.84 751.248 1844.46 669.698 1851.04C644.25 1853.09 619.184 1854.1 595.258 1854.1Z" fill="url(#paint2_linear_23_233)"/>
<path d="M594.572 1790.32C536.708 1790.32 486.071 1784.4 451.989 1773.16C450.237 1772.58 449.288 1770.7 449.864 1768.95C450.44 1767.2 452.32 1766.25 454.076 1766.82C501.504 1782.46 581.911 1787.6 669.161 1780.56C749.966 1774.05 825.333 1757.65 870.766 1736.7C872.441 1735.93 874.422 1736.66 875.194 1738.33C875.964 1740 875.234 1741.98 873.562 1742.76C827.454 1764.02 751.242 1780.64 669.697 1787.21C643.857 1789.3 618.59 1790.32 594.572 1790.32Z" fill="url(#paint3_linear_23_233)"/>
<path d="M595.018 1726.47C549.118 1726.47 507.37 1722.75 474.914 1715.54C473.116 1715.14 471.981 1713.36 472.381 1711.56C472.781 1709.76 474.569 1708.63 476.361 1709.03C525.165 1719.87 595.441 1722.68 669.162 1716.74C749.249 1710.28 824.23 1694.06 869.738 1673.35C871.413 1672.58 873.391 1673.32 874.155 1675C874.919 1676.68 874.178 1678.65 872.5 1679.42C826.328 1700.44 750.513 1716.87 669.698 1723.39C644.163 1725.45 619.021 1726.47 595.018 1726.47Z" fill="url(#paint4_linear_23_233)"/>
<path d="M319.434 1375.71C302.565 1315.97 273.914 1260.13 235.326 1211.5C152.644 1107.29 17.7603 895.372 1.1573 606.137C-22.9917 185.433 350.124 -25.1945 690.599 3.39945C1031.07 31.9935 1367.04 285.502 1330.26 676.885C1307.63 917.704 1172.84 1100.37 1072.48 1205.27C1008.75 1271.89 963.294 1353.47 938.686 1442.32C908.568 1551.06 836.894 1686.57 666.534 1694.83C446.092 1705.52 354.538 1500.04 319.434 1375.71Z" fill="url(#paint5_linear_23_233)"/>
<path d="M722.846 1610.93L841.978 836.091C844.438 820.084 852.316 809.334 859.573 812.08C866.83 814.828 870.718 830.031 868.257 846.039C868.19 846.466 868.103 846.992 868.029 847.411L732.329 1615.05C731.309 1620.83 728.376 1624.47 725.781 1623.2C723.264 1621.96 721.99 1616.52 722.846 1610.93Z" fill="url(#paint6_linear_23_233)"/>
<path d="M599.182 1617.09L480.05 842.243C477.59 826.236 469.711 815.486 462.455 818.232C455.198 820.98 451.31 836.182 453.771 852.191C453.837 852.617 453.925 853.144 453.999 853.563L589.699 1621.21C590.719 1626.98 593.652 1630.63 596.247 1629.35C598.763 1628.11 600.037 1622.68 599.182 1617.09Z" fill="url(#paint7_linear_23_233)"/>
<path d="M841.122 769.563C838.097 764.698 831.096 762.881 825.484 765.502L759.149 796.497L736.123 730.889C734.905 727.467 732.082 724.432 728.056 722.773C720.426 719.628 711.299 722.44 707.672 729.055L707.555 729.269L653.002 828.736L602.379 687.139L602.295 686.904C601.055 683.448 598.443 680.343 594.632 678.264C586.143 673.629 574.93 675.839 569.584 683.197L493.318 788.188C490.216 792.491 491.283 798.257 496.005 801.437C501.045 804.834 508.308 804.044 512.224 799.675L579.376 724.768L639.834 859.467L639.88 859.571C640.849 861.725 642.674 863.607 645.207 864.792C650.88 867.448 657.963 865.616 661.028 860.698L719.373 767.072L741.332 814.426L741.526 814.847C741.685 815.187 741.866 815.523 742.072 815.853C745.094 820.714 752.09 822.53 757.697 819.91L836.437 783.118C842.049 780.497 844.147 774.428 841.122 769.563Z" fill="white"/>
<path d="M1075.07 1111.61C1070.64 1111.61 1066.18 1110.24 1062.36 1107.4C1052.9 1100.38 1050.92 1087.01 1057.94 1077.54C1078.09 1050.39 1096.55 1022.35 1112.81 994.193C1118.71 983.986 1131.76 980.49 1141.97 986.382C1152.18 992.274 1155.68 1005.33 1149.78 1015.54C1132.7 1045.11 1113.34 1074.53 1092.22 1102.98C1088.03 1108.63 1081.59 1111.61 1075.07 1111.61Z" fill="white"/>
<path d="M1173.08 943.417C1170.24 943.417 1167.36 942.847 1164.59 941.645C1153.77 936.948 1148.81 924.379 1153.51 913.561C1278.3 626.171 1170.87 385.36 1169.76 382.956C1164.85 372.242 1169.55 359.576 1180.27 354.657C1191.01 349.759 1203.67 354.456 1208.57 365.169C1213.38 375.668 1324.97 625.872 1192.67 930.563C1189.17 938.609 1181.32 943.417 1173.08 943.417Z" fill="white"/>
<defs>
<linearGradient id="paint0_linear_23_233" x1="93.4884" y1="2324.58" x2="700.438" y2="1744.91" gradientUnits="userSpaceOnUse">
<stop stop-color="#53D8FF"/>
<stop offset="1" stop-color="#3840F7"/>
</linearGradient>
<linearGradient id="paint1_linear_23_233" x1="526.375" y1="264.477" x2="601.392" y2="1219.24" gradientUnits="userSpaceOnUse">
<stop stop-color="#2B3582"/>
<stop offset="1" stop-color="#150E42"/>
</linearGradient>
<linearGradient id="paint2_linear_23_233" x1="544.214" y1="263.09" x2="619.231" y2="1217.84" gradientUnits="userSpaceOnUse">
<stop stop-color="#2B3582"/>
<stop offset="1" stop-color="#150E42"/>
</linearGradient>
<linearGradient id="paint3_linear_23_233" x1="545.38" y1="262.989" x2="620.397" y2="1217.74" gradientUnits="userSpaceOnUse">
<stop stop-color="#2B3582"/>
<stop offset="1" stop-color="#150E42"/>
</linearGradient>
<linearGradient id="paint4_linear_23_233" x1="560.82" y1="261.779" x2="635.837" y2="1216.53" gradientUnits="userSpaceOnUse">
<stop stop-color="#2B3582"/>
<stop offset="1" stop-color="#150E42"/>
</linearGradient>
<linearGradient id="paint5_linear_23_233" x1="672.863" y1="420.648" x2="606.151" y2="2235.25" gradientUnits="userSpaceOnUse">
<stop stop-color="#FEECB3"/>
<stop offset="1" stop-color="#BF2EF0"/>
</linearGradient>
<linearGradient id="paint6_linear_23_233" x1="790.535" y1="1058.24" x2="839.458" y2="2612.65" gradientUnits="userSpaceOnUse">
<stop stop-color="#FDF53F"/>
<stop offset="1" stop-color="#D93C65"/>
</linearGradient>
<linearGradient id="paint7_linear_23_233" x1="521.041" y1="1066.72" x2="569.964" y2="2621.14" gradientUnits="userSpaceOnUse">
<stop stop-color="#FEECB3"/>
<stop offset="1" stop-color="#69247C"/>
</linearGradient>
</defs>
</svg>
