<svg width="493" height="457" viewBox="0 0 493 457" fill="none" xmlns="http://www.w3.org/2000/svg">
<path d="M365.82 412.473C364.616 421.819 355.452 431.78 348.346 431.535C309.134 430.186 204.225 412.257 181.245 261.431C161.84 134.065 138.819 74.357 126.182 49.3111C123.511 44.0141 130.709 33.2662 136.73 33.5573C203.141 36.7798 409.473 73.7624 365.82 412.473Z" fill="url(#paint0_linear_17_2)"/>
<path d="M352.259 414.101C352.187 414.206 352.112 414.311 352.031 414.415C350.721 416.129 348.938 416.821 348.052 415.961C346.921 414.865 234.586 304.329 199.358 133.485C199.057 132.022 200.072 129.833 201.626 128.593C203.18 127.354 204.684 127.535 204.985 128.997C239.993 298.774 351.677 408.667 352.801 409.758C353.635 410.563 353.381 412.453 352.259 414.101Z" fill="#E4F1AC"/>
<defs>
<linearGradient id="paint0_linear_17_2" x1="228.714" y1="494.454" x2="21.4744" y2="92.0312" gradientUnits="userSpaceOnUse">
<stop stop-color="#F72C5B"/>
<stop offset="0.9964" stop-color="#A7D477"/>
</linearGradient>
</defs>
</svg>
