<svg width="208" height="202" viewBox="0 0 208 202" fill="none" xmlns="http://www.w3.org/2000/svg">
<path d="M206.882 201.143C209.895 202.731 189.912 168.338 188.379 138.036C186.846 107.734 180.01 56.0162 153.879 25.0792C127.748 -5.85782 99.1334 -8.68083 63.0764 19.4442C33.0284 42.8812 14.2864 54.7092 3.29339 56.9082C0.571386 57.4522 -0.81761 60.5252 0.50739 62.9642C7.55739 75.9472 27.4894 105.77 60.9574 103.67C103.647 100.992 155.384 73.2402 171.153 96.3912C186.922 119.542 184.897 132.495 185.381 143.467C185.865 154.438 186.945 190.631 206.882 201.143Z" fill="url(#paint0_linear_17_11)"/>
<path d="M75.2215 56.6271C77.5725 54.3541 80.0655 52.3151 82.6425 50.3431C85.2175 48.3781 87.8705 46.503 90.6405 44.797C96.1575 41.36 102.055 38.4281 108.348 36.4051C111.496 35.4061 114.741 34.6341 118.064 34.2051C121.387 33.8011 124.787 33.7441 128.164 34.1611C129.004 34.2971 129.853 34.3771 130.686 34.5631C131.512 34.7571 132.369 34.9161 133.169 35.1451L137.892 36.612L142.515 38.4111L146.998 40.5671C152.876 43.6651 158.19 47.8611 162.608 52.7941C167.063 57.7121 170.531 63.3831 173.383 69.2431C174.103 70.7091 174.83 72.1711 175.408 73.6941C176.013 75.2041 176.665 76.6971 177.229 78.2201L178.806 82.8241C179.364 84.3481 179.716 85.9321 180.164 87.4861C181.932 93.7111 183.148 100.051 184.178 106.399C184.244 106.808 183.967 107.193 183.558 107.259C183.171 107.322 182.804 107.076 182.711 106.702L182.705 106.678C181.167 100.477 179.705 94.265 177.615 88.263C176.665 85.23 175.47 82.2981 174.36 79.3371C173.762 77.8751 173.08 76.4521 172.446 75.0091C171.838 73.5521 171.089 72.1691 170.349 70.7831C167.433 65.2211 163.894 60.0231 159.69 55.4721C155.48 50.9241 150.488 47.1791 145.026 44.3041L140.836 42.3201L136.494 40.6611L132.03 39.3051C131.29 39.0951 130.57 38.9571 129.839 38.7771C129.111 38.6051 128.359 38.5351 127.62 38.4051C124.64 38.0121 121.587 38.0341 118.551 38.3781C115.511 38.6981 112.48 39.333 109.501 40.198C103.533 41.922 97.7655 44.5011 92.2145 47.5031C89.4515 49.0281 86.7065 50.6141 84.0415 52.3371C81.3865 54.0621 78.7585 55.8871 76.2525 57.7941L76.2335 57.8091C75.8915 58.0701 75.4015 58.0031 75.1415 57.6611C74.9005 57.3421 74.9405 56.8981 75.2215 56.6271Z" fill="#FEEC37"/>
<defs>
<linearGradient id="paint0_linear_17_11" x1="-0.000110797" y1="100.598" x2="207.191" y2="100.598" gradientUnits="userSpaceOnUse">
<stop stop-color="#FF77B7"/>
<stop offset="0.9964" stop-color="#FFA24C"/>
</linearGradient>
</defs>
</svg>
