<svg width="243" height="331" viewBox="0 0 243 331" fill="none" xmlns="http://www.w3.org/2000/svg">
<path d="M242.242 330.679C247.535 333.311 192.367 263.139 175.573 153.317C167.66 101.566 167.913 36.7829 138.598 11.6539C114.2 -9.2601 30.7121 3.3939 3.39012 8.2269C-0.0238812 8.8309 -1.19588 13.1329 1.44612 15.3769C14.4741 26.4419 42.3291 52.5259 49.4791 78.6969C58.9031 113.193 91.5271 135.282 120.809 141.374C150.091 147.466 166.367 153.31 180.388 200.271C194.409 247.232 227.201 323.2 242.242 330.679Z" fill="url(#paint0_linear_17_16)"/>
<path d="M41.6922 23.0678C59.2892 23.9598 76.6502 28.4438 92.6012 36.1578C100.586 39.9888 108.101 44.8698 114.891 50.6368C121.632 56.4528 127.654 63.1898 132.411 70.7618L134.18 73.6087C134.764 74.5617 135.257 75.5658 135.799 76.5418C136.315 77.5268 136.874 78.5147 137.353 79.4967L138.794 82.4437C140.725 86.3687 142.636 90.3038 144.507 94.2578C148.26 102.161 151.884 110.126 155.382 118.146C162.387 134.184 168.88 150.44 174.357 167.097C174.502 167.538 174.262 168.014 173.821 168.159C173.397 168.298 172.941 168.082 172.778 167.673L172.768 167.648C169.555 159.566 166.193 151.507 162.675 143.534C159.199 135.54 155.629 127.586 151.976 119.672L146.461 107.818L140.815 96.0248C138.937 92.0918 137.019 88.1778 135.082 84.2738L133.636 81.3428C133.155 80.3638 132.631 79.4548 132.131 78.5068C131.618 77.5728 131.155 76.6087 130.604 75.6977L128.931 72.9718C124.452 65.7018 118.693 59.2908 112.335 53.5838C109.092 50.7988 105.743 48.1127 102.15 45.7637L100.82 44.8577L99.4562 44.0028C98.5442 43.4368 97.6461 42.8467 96.7221 42.2987C94.8581 41.2297 93.0052 40.1358 91.0822 39.1668C83.4642 35.1458 75.3532 32.0577 67.0672 29.5727C58.7842 27.0937 50.2232 25.3097 41.6322 24.4177L41.5882 24.4128C41.2172 24.3738 40.9482 24.0427 40.9872 23.6717C41.0242 23.3137 41.3372 23.0498 41.6922 23.0678Z" fill="black"/>
<defs>
<linearGradient id="paint0_linear_17_16" x1="34.4497" y1="186.978" x2="207.464" y2="152.781" gradientUnits="userSpaceOnUse">
<stop stop-color="#F96E2A"/>
<stop offset="1" stop-color="#78B3CE"/>
</linearGradient>
</defs>
</svg>
