<svg width="191" height="310" viewBox="0 0 191 310" fill="none" xmlns="http://www.w3.org/2000/svg">
<path d="M176.062 309.792C176.062 309.792 167.992 238.636 132.713 224.148C97.4345 209.66 33.6905 206.337 17.3515 104.817C7.78654 45.3827 2.72455 19.5177 0.172549 8.28766C-0.823451 3.90666 2.62454 -0.214344 7.11154 0.00865614C38.8515 1.58066 142.657 11.7427 173.166 77.4427C209.335 155.331 176.062 309.792 176.062 309.792Z" fill="url(#paint0_linear_13_391)"/>
<path d="M34.8926 25.1136C37.5936 26.9356 40.1986 28.8046 42.7866 30.7306C44.0826 31.6886 45.3526 32.6756 46.6216 33.6666C47.8876 34.6606 49.1756 35.6296 50.4186 36.6516C52.9216 38.6746 55.4396 40.6846 57.8846 42.7776L61.5806 45.8886L65.2076 49.0776L68.8176 52.2886L72.3546 55.5776C74.7196 57.7646 77.0796 59.9586 79.3646 62.2296C84.0126 66.6946 88.4526 71.3656 92.9326 76.0026C97.2796 80.7606 101.688 85.4726 105.821 90.4256L108.967 94.1016L110.54 95.9396L112.059 97.8226L118.119 105.37L119.624 107.265L121.07 109.206L123.962 113.088L126.854 116.971L128.3 118.913L129.684 120.899C133.331 126.236 137.129 131.427 140.528 137.008C141.421 138.37 142.216 139.789 143.044 141.189C143.861 142.595 144.7 143.989 145.499 145.406L147.822 149.695L148.981 151.841L150.073 154.021L152.256 158.381L154.308 162.802C155.715 165.733 156.893 168.761 158.181 171.742C163.036 183.785 167.097 196.138 170.166 208.726C173.323 221.291 175.541 234.069 177.023 246.912C177.732 253.339 178.242 259.784 178.545 266.241C178.857 272.714 178.948 279.13 178.623 285.697C178.564 286.886 177.553 287.802 176.364 287.744C175.219 287.687 174.327 286.747 174.315 285.616L174.314 285.522C174.204 272.951 173.111 260.18 171.301 247.639C169.51 235.07 167.039 222.604 163.801 210.355C160.575 198.102 156.565 186.071 151.762 174.381C146.848 162.745 141.304 151.36 134.63 140.656C121.155 119.216 105.508 98.9736 88.6746 79.8986L82.2386 72.8416C80.1216 70.4606 77.8496 68.2276 75.6706 65.9036C73.4956 63.5746 71.2466 61.3186 68.9896 59.0696L65.6136 55.6846L62.1636 52.3766C53.0256 43.5016 43.4566 34.9836 33.4866 27.1156L33.4516 27.0886C32.9216 26.6696 32.8306 25.9006 33.2486 25.3706C33.6466 24.8646 34.3676 24.7616 34.8926 25.1136Z" fill="#222669"/>
<defs>
<linearGradient id="paint0_linear_13_391" x1="24.0287" y1="165.115" x2="188.747" y2="140.039" gradientUnits="userSpaceOnUse">
<stop stop-color="#233894"/>
<stop offset="0.9964" stop-color="#DD397A"/>
</linearGradient>
</defs>
</svg>
