<?xml version="1.0" encoding="utf-8"?>
<!-- Generator: Adobe Illustrator 27.5.0, SVG Export Plug-In . SVG Version: 6.00 Build 0)  -->
<svg version="1.1" xmlns="http://www.w3.org/2000/svg" xmlns:xlink="http://www.w3.org/1999/xlink" x="0px" y="0px"
	 viewBox="0 0 500 500" style="enable-background:new 0 0 500 500;" xml:space="preserve">
<g id="BACKGROUND">
	<rect style="fill-rule:evenodd;clip-rule:evenodd;fill:#D9E7FF;" width="500" height="500"/>
	<path style="fill:#BACAE8;" d="M499.286,429.712c-78.397-4.703-162.493-7.257-250-7.257c-87.507,0-171.603,2.554-250,7.257V500h500
		V429.712z"/>
</g>
<g id="OBJECTS">
	<g>
		<text transform="matrix(1 0 0 1 57.4923 59.4456)" style="fill:#3A6C86; font-family:'Montserrat-Medium'; font-size:27.7702px;">APP</text>
		<text transform="matrix(1 0 0 1 57.4923 84.4818)" style="fill:#3A6C86; font-family:'Montserrat-Bold'; font-size:27.7702px;">DEVELOPMENT</text>
	</g>
	<g>
		<g>
			<g>
				<g>
					<g>
						<path style="opacity:0.05;" d="M381.949,467.509H118.051c-4.015,0-7.301-3.285-7.301-7.301l0,0
							c0-4.015,3.285-7.301,7.301-7.301h263.898c4.015,0,7.301,3.285,7.301,7.301l0,0
							C389.249,464.224,385.964,467.509,381.949,467.509z"/>
						<g>
							<path style="fill:#3A6C86;" d="M422.783,354.51H77.217c-10.583,0-19.161-8.579-19.161-19.161V123.571
								c0-10.582,8.579-19.161,19.161-19.161h345.567c10.582,0,19.161,8.579,19.161,19.161v211.777
								C441.945,345.931,433.366,354.51,422.783,354.51z"/>
							<path style="fill:#EBF2FF;" d="M420.713,349.103H79.287c-8.962,0-16.227-7.265-16.227-16.227V126.044
								c0-8.962,7.265-16.227,16.227-16.227h341.425c8.962,0,16.227,7.265,16.227,16.227v206.833
								C436.939,341.838,429.674,349.103,420.713,349.103z"/>
							<g>
								<path style="fill:#233E4D;" d="M288.401,354.51h-76.765c0,0,6.903,51.621-42.044,85.507h160.853
									C281.498,406.131,288.401,354.51,288.401,354.51z"/>
								<path style="fill:#274859;" d="M282.892,354.51h-65.748c0,0,5.912,51.621-36.01,85.507h137.768
									C276.98,406.131,282.892,354.51,282.892,354.51z"/>
								<path style="opacity:0.2;" d="M250,434.19c-23.547,0-46.352-1.447-68.034-4.143c-3.666,3.441-7.773,6.784-12.375,9.969
									h160.853c-4.603-3.187-8.711-6.53-12.378-9.973C296.374,432.742,273.558,434.19,250,434.19z"/>
								<path style="opacity:0.2;" d="M211.909,364.422c12.433-0.839,25.149-1.28,38.091-1.28c12.955,0,25.683,0.441,38.127,1.282
									c-0.227-6.153,0.274-9.915,0.274-9.915h-76.765C211.635,354.51,212.136,358.271,211.909,364.422z"/>
							</g>
							<g>
								<path style="fill:#3A6C86;" d="M140.538,439.192h218.923c8.119,0,14.701,6.582,14.701,14.701v5.161
									c0,1.614-1.308,2.922-2.922,2.922H128.759c-1.614,0-2.922-1.308-2.922-2.922v-5.161
									C125.837,445.774,132.419,439.192,140.538,439.192z"/>
								<path style="fill:#274859;" d="M371.495,445.464c0.081,1.21,0.021,2.471-0.233,3.773l-0.986,5.064
									c-0.305,1.567-1.813,2.831-3.369,2.831H133.093c-1.556,0-3.064-1.264-3.369-2.831l-0.986-5.064
									c-0.254-1.303-0.314-2.564-0.233-3.773c-1.676,2.388-2.667,5.29-2.667,8.429v5.161c0,1.614,1.308,2.922,2.922,2.922H371.24
									c1.614,0,2.922-1.308,2.922-2.922v-5.161C374.163,450.755,373.171,447.852,371.495,445.464z"/>
							</g>
							<path style="fill:#3A6C86;" d="M58.055,323.241v12.108c0,10.582,8.579,19.161,19.161,19.161h345.567
								c10.582,0,19.161-8.579,19.161-19.161v-12.108H58.055z"/>
							<g>
								<g>
									<path style="fill:#274859;" d="M423.879,347.956h-14.505c-1.009,0-1.828-0.818-1.828-1.828v-14.505
										c0-1.009,0.818-1.828,1.828-1.828h14.505c1.009,0,1.828,0.818,1.828,1.828v14.505
										C425.707,347.138,424.888,347.956,423.879,347.956z"/>
									<path style="fill:#99BFD4;" d="M421.95,345.541h-10.648c-0.741,0-1.342-0.601-1.342-1.342v-10.648
										c0-0.741,0.601-1.342,1.342-1.342h10.648c0.741,0,1.342,0.601,1.342,1.342v10.648
										C423.292,344.94,422.691,345.541,421.95,345.541z"/>
								</g>
								<g>
									<path style="fill:#274859;" d="M400.796,342.551h-5.872c-0.409,0-0.74-0.331-0.74-0.74v-5.872
										c0-0.409,0.331-0.74,0.74-0.74h5.872c0.409,0,0.74,0.331,0.74,0.74v5.872C401.536,342.22,401.205,342.551,400.796,342.551z
										"/>
									<path style="fill:#99BFD4;" d="M400.015,341.574h-4.311c-0.3,0-0.543-0.243-0.543-0.543v-4.311
										c0-0.3,0.243-0.543,0.543-0.543h4.311c0.3,0,0.543,0.243,0.543,0.543v4.311
										C400.558,341.331,400.315,341.574,400.015,341.574z"/>
								</g>
								<g>
									<path style="fill:#274859;" d="M388.544,342.551h-5.872c-0.409,0-0.74-0.331-0.74-0.74v-5.872
										c0-0.409,0.331-0.74,0.74-0.74h5.872c0.409,0,0.74,0.331,0.74,0.74v5.872C389.284,342.22,388.953,342.551,388.544,342.551z
										"/>
									<path style="fill:#99BFD4;" d="M387.764,341.574h-4.311c-0.3,0-0.543-0.243-0.543-0.543v-4.311
										c0-0.3,0.243-0.543,0.543-0.543h4.311c0.3,0,0.543,0.243,0.543,0.543v4.311
										C388.307,341.331,388.064,341.574,387.764,341.574z"/>
								</g>
							</g>
						</g>
					</g>
					<path style="opacity:0.2;" d="M199.153,408.55h11.546v-32.234C209.16,385.629,205.882,397.002,199.153,408.55z"/>
					<path style="opacity:0.2;" d="M293.066,415.87h12.555c-5.947-8.305-9.92-16.727-12.555-24.562V415.87z"/>
				</g>
				<path style="opacity:0.1;" d="M352.466,208.697H442.2v-85.126c0-6.436-3.184-12.117-8.051-15.592h-81.682V208.697z"/>
				<path style="opacity:0.1;" d="M58.31,266.491v62.625c0,0.355-0.094,0.708-0.255,1.059v5.174c0,1.217,0.126,2.402,0.343,3.556
					h81.037v-72.414H58.31z"/>
				<rect x="400.263" y="227.308" style="opacity:0.1;" width="41.936" height="65.592"/>
				<rect x="121.861" y="105.588" style="opacity:0.1;" width="53.971" height="46.868"/>
				<rect x="86.817" y="167.801" style="opacity:0.1;" width="154.958" height="76.21"/>
				<rect x="261.2" y="257.1" style="opacity:0.1;" width="124.235" height="85.33"/>
				<rect x="269.627" y="162.362" style="opacity:0.1;" width="68.697" height="67.662"/>
				<rect x="154.718" y="258.863" style="opacity:0.1;" width="91.149" height="89.093"/>
				<path style="opacity:0.1;" d="M312.399,122.067h-13.961h-96.877H187.6c-8.307,0-15.041,6.734-15.041,15.041V354.51h39.076
					c0,0,0.018,0.132,0.045,0.386c0,0.002,0,0.004,0.001,0.006c0.009,0.084,0.019,0.18,0.029,0.29c0,0.002,0,0.004,0,0.005
					c0.13,1.348,0.369,4.615,0.199,9.226l0,0c-0.123,3.334-0.462,7.37-1.21,11.894v0c-0.289,1.746-0.638,3.565-1.061,5.443
					c0,0.001,0,0.002-0.001,0.002c-0.133,0.594-0.275,1.194-0.423,1.799c-0.018,0.071-0.035,0.143-0.053,0.215
					c-0.138,0.559-0.283,1.123-0.435,1.691c-0.018,0.068-0.036,0.135-0.054,0.203c-0.514,1.91-1.104,3.87-1.782,5.867
					c-0.022,0.065-0.045,0.13-0.068,0.196c-0.199,0.583-0.406,1.17-0.621,1.759c-0.041,0.114-0.084,0.228-0.126,0.342
					c-0.207,0.563-0.422,1.129-0.644,1.697c-0.041,0.105-0.081,0.21-0.123,0.315c-0.798,2.024-1.689,4.077-2.683,6.147
					c-0.046,0.097-0.095,0.194-0.142,0.291c-0.262,0.541-0.532,1.083-0.809,1.626h21.956h52.732h22
					c-0.577-1.134-1.132-2.264-1.647-3.388c-0.047-0.103-0.096-0.206-0.142-0.308c-0.42-0.925-0.819-1.845-1.2-2.761
					c-0.051-0.123-0.102-0.246-0.152-0.369c-0.38-0.925-0.743-1.845-1.085-2.758c-0.022-0.059-0.043-0.118-0.065-0.178
					c-0.355-0.954-0.693-1.902-1.008-2.841c-3.577-10.632-4.691-20.178-4.939-26.883l0,0c-0.227-6.153,0.273-9.915,0.273-9.915
					h39.039v-11.211v-89.672v-27.114v-72.192v-17.214C327.44,128.801,320.706,122.067,312.399,122.067z"/>
			</g>
			<g>
				<g>
					<path style="fill:#1C313D;" d="M307.551,394.088H192.448c-7.795,0-14.114-6.319-14.114-14.114V140.004
						c0-7.795,6.319-14.114,14.114-14.114h115.103c7.795,0,14.115,6.319,14.115,14.114v239.969
						C321.666,387.768,315.347,394.088,307.551,394.088z"/>
					<path style="fill:#FFFFFF;" d="M305.89,390.401H194.11c-6.701,0-12.133-5.432-12.133-12.133V141.709
						c0-6.701,5.432-12.133,12.133-12.133h111.78c6.701,0,12.133,5.432,12.133,12.133v236.559
						C318.023,384.969,312.591,390.401,305.89,390.401z"/>
					<g>
						<path style="fill:#1C313D;" d="M205.173,125.89v4.494c0,7.103,5.811,12.914,12.914,12.914h63.825
							c7.103,0,12.914-5.812,12.914-12.914v-4.494H205.173z"/>
						<path style="fill:#FFFFFF;" d="M269.93,136.429h-39.86c-1.009,0-1.835-0.826-1.835-1.835l0,0c0-1.009,0.826-1.835,1.835-1.835
							h39.86c1.01,0,1.835,0.826,1.835,1.835l0,0C271.766,135.603,270.94,136.429,269.93,136.429z"/>
						<g>
							<circle style="fill:#FFFFFF;" cx="281.628" cy="134.594" r="4.079"/>
							<circle style="fill:#EBF2FF;" cx="281.628" cy="134.594" r="2.433"/>
							<path style="fill:#D9E7FF;" d="M283.005,134.594c0,0.761-0.617,1.378-1.378,1.378c-0.761,0-1.377-0.617-1.377-1.378
								c0-0.761,0.617-1.378,1.377-1.378C282.389,133.216,283.005,133.833,283.005,134.594z"/>
						</g>
						<g>
							<circle style="fill:#FFFFFF;" cx="222.552" cy="134.594" r="2.433"/>
							<circle style="fill:#D9E7FF;" cx="222.552" cy="134.594" r="1.377"/>
						</g>
						<g>
							<path style="fill:#FFFFFF;" d="M217.109,134.594c0,1.344-1.089,2.433-2.433,2.433c-1.344,0-2.433-1.089-2.433-2.433
								s1.089-2.433,2.433-2.433C216.02,132.16,217.109,133.25,217.109,134.594z"/>
							<path style="fill:#D9E7FF;" d="M216.054,134.594c0,0.761-0.617,1.378-1.378,1.378c-0.761,0-1.377-0.617-1.377-1.378
								c0-0.761,0.617-1.378,1.377-1.378C215.437,133.216,216.054,133.833,216.054,134.594z"/>
						</g>
					</g>
					<g>
						<path style="fill:#1C313D;" d="M265.606,367.361h-31.212c-4.837,0-8.794,3.957-8.794,8.794v17.932H274.4v-17.932
							C274.4,371.319,270.443,367.361,265.606,367.361z"/>
						<g>
							<g>
								<path style="fill:#FFFFFF;" d="M261.128,380.874h-22.256c-0.536,0-0.975-0.439-0.975-0.976l0,0
									c0-0.537,0.439-0.976,0.975-0.976h22.256c0.537,0,0.976,0.439,0.976,0.976l0,0
									C262.103,380.435,261.664,380.874,261.128,380.874z"/>
								<path style="fill:#FFFFFF;" d="M261.128,374.718h-22.256c-0.536,0-0.975-0.439-0.975-0.976l0,0
									c0-0.537,0.439-0.976,0.975-0.976h22.256c0.537,0,0.976,0.439,0.976,0.976l0,0
									C262.103,374.279,261.664,374.718,261.128,374.718z"/>
								<path style="fill:#FFFFFF;" d="M261.128,387.031h-22.256c-0.536,0-0.975-0.439-0.975-0.976l0,0
									c0-0.537,0.439-0.976,0.975-0.976h22.256c0.537,0,0.976,0.439,0.976,0.976l0,0
									C262.103,386.592,261.664,387.031,261.128,387.031z"/>
							</g>
						</g>
					</g>
				</g>
				<rect x="178.334" y="162.021" style="opacity:0.1;" width="63.186" height="78.279"/>
				<rect x="269.372" y="156.583" style="opacity:0.1;" width="52.294" height="68.697"/>
				<rect x="260.945" y="251.08" style="opacity:0.1;" width="60.721" height="85.33"/>
				<rect x="178.334" y="254.19" style="opacity:0.1;" width="67.279" height="89.08"/>
			</g>
		</g>
		<g>
			<g>
				<g>
					<rect x="42.133" y="351.953" style="fill:#FFE063;" width="168.821" height="45.379"/>
					<polygon style="fill:#FFD357;" points="210.954,351.953 210.954,397.332 42.133,397.332 					"/>
				</g>
				<g>
					<rect x="54.532" y="362.138" style="fill:#FFFFFF;" width="25.009" height="25.01"/>
					<polygon style="fill:#EBF2FF;" points="79.541,362.138 79.541,387.148 54.532,387.148 					"/>
				</g>
				<g>
					<rect x="94.203" y="362.138" style="fill:#FFFFFF;" width="25.009" height="25.01"/>
					<polygon style="fill:#EBF2FF;" points="119.213,362.138 119.213,387.148 94.203,387.148 					"/>
				</g>
				<g>
					<rect x="133.875" y="362.138" style="fill:#FFFFFF;" width="25.009" height="25.01"/>
					<polygon style="fill:#EBF2FF;" points="158.884,362.138 158.884,387.148 133.875,387.148 					"/>
				</g>
				<g>
					<rect x="173.546" y="362.138" style="fill:#FFFFFF;" width="25.009" height="25.01"/>
					<polygon style="fill:#EBF2FF;" points="198.556,362.138 198.556,387.148 173.546,387.148 					"/>
				</g>
			</g>
			<g>
				<g>
					<rect x="261.2" y="245.882" style="fill:#FFE063;" width="124.235" height="85.33"/>
					<polygon style="fill:#FFD357;" points="385.435,245.882 385.435,331.212 261.2,331.212 					"/>
				</g>
				<g>
					<g>
						<path style="fill:#FFFFFF;" d="M372.594,260.729h-98.553c-1.226,0-2.229-1.003-2.229-2.229l0,0
							c0-1.226,1.003-2.229,2.229-2.229h98.553c1.226,0,2.229,1.003,2.229,2.229l0,0
							C374.823,259.726,373.82,260.729,372.594,260.729z"/>
						<path style="fill:#FFFFFF;" d="M372.594,275.753h-98.553c-1.226,0-2.229-1.003-2.229-2.229l0,0
							c0-1.226,1.003-2.229,2.229-2.229h98.553c1.226,0,2.229,1.003,2.229,2.229l0,0
							C374.823,274.749,373.82,275.753,372.594,275.753z"/>
						<path style="fill:#FFFFFF;" d="M372.594,290.776h-98.553c-1.226,0-2.229-1.003-2.229-2.229l0,0
							c0-1.226,1.003-2.229,2.229-2.229h98.553c1.226,0,2.229,1.003,2.229,2.229l0,0
							C374.823,289.773,373.82,290.776,372.594,290.776z"/>
						<path style="fill:#FFFFFF;" d="M372.594,305.8h-98.553c-1.226,0-2.229-1.003-2.229-2.229l0,0c0-1.226,1.003-2.229,2.229-2.229
							h98.553c1.226,0,2.229,1.003,2.229,2.229l0,0C374.823,304.797,373.82,305.8,372.594,305.8z"/>
						<path style="fill:#FFFFFF;" d="M357.881,320.824h-69.127c-1.226,0-2.229-1.003-2.229-2.229l0,0
							c0-1.226,1.003-2.229,2.229-2.229h69.127c1.226,0,2.229,1.003,2.229,2.229l0,0
							C360.11,319.821,359.107,320.824,357.881,320.824z"/>
					</g>
				</g>
			</g>
			<g>
				<g>
					<rect x="352.466" y="96.761" style="fill:#3C9CF7;" width="104.857" height="104.857"/>
					<polygon style="fill:#368CDE;" points="457.323,96.761 457.323,201.618 352.466,201.618 					"/>
				</g>
				<g>
					<g>
						<path style="fill:#D9E7FF;" d="M404.895,187.191c-2.374,0-4.753-0.221-7.069-0.657l2.298-12.202
							c4.194,0.791,8.641,0.514,12.701-0.808l3.844,11.806C412.875,186.565,408.914,187.191,404.895,187.191z M393.196,185.355
							c-6.057-1.958-11.577-5.452-15.962-10.106l9.035-8.516c2.957,3.137,6.672,5.491,10.746,6.808L393.196,185.355z
							 M421.107,183.568l-5.303-11.227c3.879-1.832,7.268-4.641,9.8-8.123l10.042,7.301
							C431.893,176.682,426.866,180.848,421.107,183.568z M374.191,171.583c-3.77-5.16-6.188-11.233-6.992-17.561l12.317-1.566
							c0.54,4.252,2.166,8.334,4.701,11.804L374.191,171.583z M438.205,167.492l-10.876-5.988c2.061-3.746,3.152-8.004,3.152-12.315
							v-0.135h12.416v0.135C442.896,155.589,441.274,161.918,438.205,167.492z M366.893,149.257v-0.068
							c0-6.371,1.609-12.675,4.652-18.232l10.891,5.965c-2.045,3.734-3.126,7.976-3.126,12.268L366.893,149.257z M430.268,145.868
							c-0.55-4.249-2.184-8.327-4.727-11.793l10.011-7.345c3.781,5.154,6.211,11.221,7.029,17.547L430.268,145.868z
							 M384.153,134.207l-10.056-7.282c3.744-5.171,8.764-9.348,14.515-12.078l5.325,11.216
							C390.062,127.903,386.679,130.719,384.153,134.207z M423.483,131.606c-2.964-3.131-6.684-5.477-10.76-6.785l3.793-11.822
							c6.061,1.945,11.589,5.428,15.984,10.072L423.483,131.606z M396.913,124.872l-3.87-11.798
							c3.814-1.251,7.801-1.886,11.846-1.886c0.002,0,0.004,0,0.006,0c2.345,0,4.698,0.216,6.989,0.643l-2.272,12.207
							c-1.545-0.287-3.132-0.433-4.719-0.433c-0.001,0-0.003,0-0.004,0C402.16,123.604,399.478,124.031,396.913,124.872z"/>
					</g>
					<g>
						<path style="fill:#FFFFFF;" d="M404.895,117.396c-17.559,0-31.793,14.234-31.793,31.793s14.234,31.793,31.793,31.793
							c17.559,0,31.793-14.234,31.793-31.793S422.454,117.396,404.895,117.396z M404.895,165.495c-9.005,0-16.306-7.3-16.306-16.306
							c0-9.006,7.3-16.306,16.306-16.306s16.306,7.3,16.306,16.306C421.201,158.195,413.9,165.495,404.895,165.495z"/>
						<path style="fill:#D9E7FF;" d="M404.895,128.544c-11.402,0-20.646,9.243-20.646,20.646c0,11.402,9.244,20.646,20.646,20.646
							s20.646-9.243,20.646-20.646C425.541,137.787,416.297,128.544,404.895,128.544z M404.895,165.495
							c-9.005,0-16.306-7.3-16.306-16.306c0-9.006,7.3-16.306,16.306-16.306s16.306,7.3,16.306,16.306
							C421.201,158.195,413.9,165.495,404.895,165.495z"/>
					</g>
					<circle style="fill:#FFFFFF;" cx="404.895" cy="149.055" r="10.91"/>
				</g>
			</g>
			<g>
				<g>
					<rect x="86.817" y="156.583" style="fill:#968FD0;" width="154.958" height="80.348"/>
					<polygon style="opacity:0.1;" points="241.775,156.583 241.775,236.931 86.817,236.931 					"/>
				</g>
				<g>
					
						<ellipse transform="matrix(0.7071 -0.7071 0.7071 0.7071 -101.9503 147.3838)" style="fill:#FFFFFF;" cx="126.933" cy="196.757" rx="30.269" ry="30.269"/>
					<path style="fill:#D9E7FF;" d="M149.546,216.868l-22.613-20.112l-28.601,9.906c4.104,11.85,15.355,20.363,28.601,20.363
						C135.928,227.025,144.002,223.098,149.546,216.868z"/>
					<path style="fill:#EBF2FF;" d="M127.559,166.504c-0.209-0.004-0.416-0.016-0.627-0.016c-16.717,0-30.268,13.552-30.268,30.268
						c0,3.471,0.592,6.801,1.667,9.906l28.601-9.906C126.933,196.757,127.405,180.731,127.559,166.504z"/>
				</g>
				<g>
					<path style="fill:#FFFFFF;" d="M228.057,192.509h-57.166c-1.226,0-2.229-1.003-2.229-2.229l0,0
						c0-1.226,1.003-2.229,2.229-2.229h57.166c1.226,0,2.229,1.003,2.229,2.229l0,0
						C230.286,191.506,229.283,192.509,228.057,192.509z"/>
					<path style="fill:#FFFFFF;" d="M228.057,207.533h-57.166c-1.226,0-2.229-1.003-2.229-2.229v0c0-1.226,1.003-2.229,2.229-2.229
						h57.166c1.226,0,2.229,1.003,2.229,2.229v0C230.286,206.529,229.283,207.533,228.057,207.533z"/>
					<path style="fill:#FFFFFF;" d="M228.057,177.485h-57.166c-1.226,0-2.229-1.003-2.229-2.229l0,0
						c0-1.226,1.003-2.229,2.229-2.229h57.166c1.226,0,2.229,1.003,2.229,2.229l0,0
						C230.286,176.482,229.283,177.485,228.057,177.485z"/>
					<path style="fill:#FFFFFF;" d="M198.631,222.556h-27.74c-1.226,0-2.229-1.003-2.229-2.229l0,0c0-1.226,1.003-2.229,2.229-2.229
						h27.74c1.226,0,2.229,1.003,2.229,2.229l0,0C200.86,221.553,199.857,222.556,198.631,222.556z"/>
				</g>
			</g>
			<g>
				<g>
					<rect x="28.085" y="260.239" style="fill:#3C9CF7;" width="111.349" height="72.681"/>
					<polygon style="fill:#368CDE;" points="139.435,260.239 139.435,332.92 28.085,332.92 					"/>
				</g>
				<g>
					<g>
						<path style="fill:#FFFFFF;" d="M127.026,292.737h-35.8c-1.109,0-2.016-0.907-2.016-2.016l0,0c0-1.109,0.907-2.017,2.016-2.017
							h35.8c1.109,0,2.016,0.907,2.016,2.017l0,0C129.042,291.829,128.135,292.737,127.026,292.737z"/>
						<path style="fill:#FFFFFF;" d="M127.026,306.327h-35.8c-1.109,0-2.016-0.907-2.016-2.017l0,0c0-1.109,0.907-2.017,2.016-2.017
							h35.8c1.109,0,2.016,0.907,2.016,2.017l0,0C129.042,305.419,128.135,306.327,127.026,306.327z"/>
						<path style="fill:#FFFFFF;" d="M127.026,279.147h-35.8c-1.109,0-2.016-0.907-2.016-2.017l0,0c0-1.109,0.907-2.017,2.016-2.017
							h35.8c1.109,0,2.016,0.907,2.016,2.017l0,0C129.042,278.239,128.135,279.147,127.026,279.147z"/>
						<path style="fill:#FFFFFF;" d="M115.383,319.917H91.226c-1.109,0-2.016-0.907-2.016-2.016l0,0
							c0-1.109,0.907-2.017,2.016-2.017h24.157c1.109,0,2.017,0.907,2.017,2.017l0,0C117.4,319.01,116.492,319.917,115.383,319.917z
							"/>
					</g>
				</g>
				<g>
					<g>
						<polygon style="fill:#EBF2FF;" points="69.158,297.759 56.8,322.485 56.8,322.485 44.442,297.759 						"/>
						<path style="fill:#D9E7FF;" d="M48.566,306.01c2.441,1.209,5.18,1.906,8.088,1.906c3.06,0,5.938-0.762,8.472-2.091
							l4.032-8.067l-24.716,0L48.566,306.01z"/>
					</g>
					<g>
						<path style="fill:#FFFFFF;" d="M56.654,268.053c-10.091,0-18.272,8.181-18.272,18.272c0,10.091,8.181,18.272,18.272,18.272
							c10.091,0,18.272-8.181,18.272-18.272C74.926,276.234,66.746,268.053,56.654,268.053z M56.654,292.154
							c-3.219,0-5.829-2.609-5.829-5.829c0-3.219,2.61-5.829,5.829-5.829c3.219,0,5.829,2.61,5.829,5.829
							C62.483,289.544,59.873,292.154,56.654,292.154z"/>
						<path style="fill:#D9E7FF;" d="M56.654,278.094c-4.546,0-8.232,3.685-8.232,8.232c0,4.546,3.685,8.232,8.232,8.232
							c4.546,0,8.232-3.686,8.232-8.232C64.886,281.779,61.2,278.094,56.654,278.094z M56.654,292.154
							c-3.219,0-5.829-2.609-5.829-5.829c0-3.219,2.61-5.829,5.829-5.829c3.219,0,5.829,2.61,5.829,5.829
							C62.483,289.544,59.873,292.154,56.654,292.154z"/>
					</g>
				</g>
			</g>
			<g>
				<g>
					<rect x="269.627" y="151.144" style="fill:#1DBFB2;" width="68.697" height="68.697"/>
					<polygon style="opacity:0.1;" points="338.323,151.144 338.323,219.84 269.627,219.84 					"/>
				</g>
				<g>
					
						<text transform="matrix(1 0 0 1 272.0289 193.1678)" style="fill:#FFFFFF; font-family:'Montserrat-SemiBold'; font-size:23.2319px;">JAVA</text>
				</g>
			</g>
			<g>
				<g>
					<rect x="400.263" y="216.09" style="fill:#968FD0;" width="68.697" height="68.697"/>
					<polygon style="opacity:0.1;" points="468.96,216.09 468.96,284.787 400.263,284.787 					"/>
				</g>
				<g>
					
						<text transform="matrix(1 0 0 1 407.192 256.7366)" style="fill:#FFFFFF; font-family:'Montserrat-SemiBold'; font-size:18.5187px;">HTML</text>
				</g>
			</g>
			<g>
				<g>
					<rect x="293.321" y="342.59" style="fill:#968FD0;" width="62.061" height="62.062"/>
					<polygon style="opacity:0.1;" points="355.383,342.59 355.383,404.652 293.321,404.652 					"/>
				</g>
				<g>
					
						<text transform="matrix(1 0 0 1 304.5992 393.8069)" style="fill:#FFFFFF; font-family:'Montserrat-SemiBold'; font-size:55.6796px;">#</text>
				</g>
			</g>
			<g>
				<g>
					<rect x="121.861" y="94.37" style="fill:#FFE063;" width="53.971" height="53.971"/>
					<polygon style="fill:#FFD357;" points="175.831,94.37 175.831,148.34 121.861,148.34 					"/>
				</g>
				
					<text transform="matrix(1 0 0 1 126.7516 131.8275)" style="fill:#FFFFFF; font-family:'Montserrat-SemiBold'; font-size:42.8058px;">@</text>
			</g>
			<g>
				<g>
					<rect x="154.718" y="247.645" style="fill:#1DBFB2;" width="91.149" height="91.149"/>
					<polygon style="opacity:0.1;" points="245.868,247.645 245.868,338.794 154.718,338.794 					"/>
				</g>
				
					<text transform="matrix(1 0 0 1 159.611 307.1771)" style="fill:#FFFFFF; font-family:'Montserrat-SemiBold'; font-size:40.9913px;">CSS</text>
			</g>
		</g>
	</g>
</g>
</svg>
