<?xml version="1.0" ?><!-- Uploaded to: SVG Repo, www.svgrepo.com, Generator: SVG Repo Mixer Tools -->
<svg width="800px" height="800px" viewBox="0 0 64 64" data-name="Layer 1" id="Layer_1" xmlns="http://www.w3.org/2000/svg"><defs><style>.cls-1{fill:#0074ff;}.cls-2{fill:#ffb300;}</style></defs><title/><path class="cls-1" d="M56.81,53.25H18.3a2,2,0,0,1-1.73-1L5.46,33a2,2,0,0,1,0-2L16.57,11.75a2,2,0,0,1,1.73-1H37.71a2,2,0,0,1,0,4H19.46L9.5,32l10,17.25H54.81V14.75H51.5a2,2,0,0,1,0-4h5.31a2,2,0,0,1,2,2v38.5A2,2,0,0,1,56.81,53.25Z"/><path class="cls-2" d="M46,40.79a2,2,0,0,1-1.41-.59L31,26.63a2,2,0,0,1,2.83-2.83L47.41,37.38A2,2,0,0,1,46,40.79Z"/><path class="cls-2" d="M32.42,40.79A2,2,0,0,1,31,37.38L44.59,23.8a2,2,0,0,1,2.82,2.83L33.84,40.2A2,2,0,0,1,32.42,40.79Z"/></svg>