<svg width="91" height="54" viewBox="0 0 91 54" fill="none" xmlns="http://www.w3.org/2000/svg">
<path d="M72.406 23.35C72.099 23.343 71.852 23.095 71.846 22.788C71.789 19.641 70.807 4.014 57.045 0.748001C41.723 -2.888 34.712 12.694 34.712 12.694C34.712 12.694 15.755 5.423 12.119 24.899C0.232012 27.752 -2.85599 43.275 4.87501 50.861C6.10301 52.066 7.75 52.747 9.471 52.763L83.912 53.434C86.097 53.454 88.034 52.024 88.655 49.929C90.98 42.08 94.028 23.856 72.406 23.35Z" fill="url(#paint0_linear_86_7)"/>
<path d="M70.704 23.684C70.398 23.677 70.151 23.429 70.145 23.123C70.084 20.104 69.112 5.61402 56.15 2.57602C41.662 -0.818977 35.032 13.731 35.032 13.731C35.032 13.731 17.106 6.94102 13.669 25.129C2.53705 27.768 -0.433959 42.012 6.61204 49.167C7.84704 50.421 9.52904 51.134 11.29 51.15L81.367 51.774C83.557 51.793 85.497 50.357 86.113 48.256C88.298 40.803 90.892 24.167 70.704 23.684Z" fill="url(#paint1_linear_86_7)"/>
<defs>
<linearGradient id="paint0_linear_86_7" x1="0.634709" y1="26.8157" x2="90.2809" y2="26.8157" gradientUnits="userSpaceOnUse">
<stop stop-color="#5AB6FF"/>
<stop offset="1" stop-color="#2F68E3"/>
</linearGradient>
<linearGradient id="paint1_linear_86_7" x1="85.761" y1="25.4923" x2="-49.7206" y2="35.4844" gradientUnits="userSpaceOnUse">
<stop stop-color="#F39E60"/>
<stop offset="1" stop-color="#2F68E3"/>
</linearGradient>
</defs>
</svg>
