<svg width="90" height="66" viewBox="0 0 90 66" fill="none" xmlns="http://www.w3.org/2000/svg">
<path d="M71.7714 23.152C71.4644 23.145 71.2174 22.897 71.2114 22.59C71.1544 19.443 70.1724 3.816 56.4104 0.550003C41.0884 -3.086 34.0774 12.496 34.0774 12.496C34.0774 12.496 15.1204 5.225 11.4844 24.701C-0.402632 27.554 -3.49063 43.077 4.24037 50.663C5.46837 51.868 7.11536 52.549 8.83636 52.565L83.2774 53.236C85.4624 53.256 87.3994 51.826 88.0204 49.731C90.3454 41.882 93.3934 23.658 71.7714 23.152Z" fill="url(#paint0_linear_86_91)"/>
<path d="M70.0694 23.486C69.7634 23.479 69.5164 23.231 69.5104 22.925C69.4494 19.906 68.4774 5.41603 55.5154 2.37803C41.0274 -1.01697 34.3974 13.533 34.3974 13.533C34.3974 13.533 16.4714 6.74302 13.0344 24.931C1.9024 27.57 -1.0686 41.814 5.9774 48.969C7.2124 50.223 8.89439 50.936 10.6554 50.952L80.7324 51.576C82.9224 51.595 84.8624 50.159 85.4784 48.058C87.6634 40.605 90.2574 23.969 70.0694 23.486Z" fill="url(#paint1_linear_86_91)"/>
<line x1="42.8397" y1="55.9601" x2="39.8397" y2="64.9601" stroke="black"/>
<line x1="19.8397" y1="55.9601" x2="16.8397" y2="64.9601" stroke="black"/>
<line x1="10.8397" y1="55.9601" x2="7.8397" y2="64.9601" stroke="black"/>
<line x1="51.8397" y1="55.9601" x2="48.8397" y2="64.9601" stroke="black"/>
<line x1="60.8397" y1="55.9601" x2="57.8397" y2="64.9601" stroke="black"/>
<line x1="69.8397" y1="55.9601" x2="66.8397" y2="64.9601" stroke="black"/>
<line x1="35.8397" y1="55.9601" x2="32.8397" y2="64.9601" stroke="black"/>
<line x1="28.8397" y1="55.9601" x2="25.8397" y2="64.9601" stroke="black"/>
<line x1="76.8397" y1="55.9601" x2="73.8397" y2="64.9601" stroke="black"/>
<defs>
<linearGradient id="paint0_linear_86_91" x1="6.59227e-05" y1="26.6177" x2="89.6463" y2="26.6177" gradientUnits="userSpaceOnUse">
<stop offset="1" stop-color="#2F68E3"/>
</linearGradient>
<linearGradient id="paint1_linear_86_91" x1="85.1264" y1="25.2943" x2="-50.3552" y2="35.2864" gradientUnits="userSpaceOnUse">
<stop offset="1" stop-color="#808080"/>
</linearGradient>
</defs>
</svg>
