<svg width="163" height="89" viewBox="0 0 163 89" fill="none" xmlns="http://www.w3.org/2000/svg">
<path d="M130.249 38.6203C129.693 38.6092 129.243 38.1965 129.233 37.6855C129.12 32.4433 127.298 6.413 102.326 1.0123C74.5239 -4.99945 61.8466 20.9775 61.8466 20.9775C61.8466 20.9775 27.4407 8.91914 20.8972 41.376C-0.656769 46.163 -6.21747 72.0321 7.82696 84.646C10.0589 86.6501 13.0463 87.7799 16.1688 87.8011L151.2 88.7029C155.162 88.7297 158.673 86.3413 159.793 82.8502C163.991 69.7676 169.471 39.4016 130.249 38.6203Z" fill="url(#paint0_linear_21_26)"/>
<path d="M127.164 39.1814C126.607 39.1702 126.16 38.7596 126.148 38.2486C126.03 33.2206 124.228 9.08433 100.709 4.06152C74.4198 -1.55233 62.4331 22.7066 62.4331 22.7066C62.4331 22.7066 29.9002 11.4469 23.7124 41.7557C3.52697 46.1834 -1.82467 69.9218 10.9755 81.8206C13.2197 83.9061 16.2729 85.0891 19.4655 85.1102L146.579 85.9462C150.551 85.972 154.067 83.5735 155.179 80.0714C159.123 67.649 163.783 39.9276 127.164 39.1814Z" fill="url(#paint1_linear_21_26)"/>
<defs>
<linearGradient id="paint0_linear_21_26" x1="0.0724688" y1="44.6018" x2="162.682" y2="44.3421" gradientUnits="userSpaceOnUse">
<stop stop-color="#5AB6FF"/>
<stop offset="1" stop-color="#2F68E3"/>
</linearGradient>
<linearGradient id="paint1_linear_21_26" x1="154.479" y1="42.1504" x2="-90.9926" y2="62.2582" gradientUnits="userSpaceOnUse">
<stop stop-color="#5AB6FF"/>
<stop offset="1" stop-color="#2F68E3"/>
</linearGradient>
</defs>
</svg>
