<svg width="1744" height="1532" viewBox="0 0 1744 1532" fill="none" xmlns="http://www.w3.org/2000/svg">
<g clip-path="url(#clip0_109_287)">
<rect width="1744" height="1532" fill="black"/>
<mask id="mask0_109_287" style="mask-type:alpha" maskUnits="userSpaceOnUse" x="-153" y="-183" width="1956" height="1440">
<path d="M714.34 358.828C714.34 506.088 811.705 625.465 931.81 625.465C1051.92 625.465 1802.32 108.968 1802.32 -38.292C1802.32 -185.552 724.135 17.1787 604.029 17.1787C483.924 17.1787 714.34 211.568 714.34 358.828Z" fill="url(#paint0_linear_109_287)"/>
<path d="M629.874 989.853C629.874 1137.11 727.239 1256.49 847.344 1256.49C967.45 1256.49 1636.54 1222.17 1636.54 1074.91C1636.54 927.645 1587.08 578.821 1466.98 578.821C1346.87 578.821 629.874 842.593 629.874 989.853Z" fill="url(#paint1_radial_109_287)"/>
<path d="M383.179 359.232C59.1133 651.92 208.812 504.832 -69.532 497.422C-113.197 505.833 -187.324 506.233 -134.511 440.541C-68.4951 358.427 -89.7712 300.429 -7.26893 210.965C75.2334 121.501 125.478 30.6071 250.033 -111.683C374.589 -253.973 384.171 -136.679 524.592 -147.798C665.012 -158.917 600.966 -141.26 794.71 65.1971C988.454 271.654 707.245 66.543 383.179 359.232Z" fill="#D9D9D9"/>
<path d="M689.125 819.613C1122.81 870.672 913.529 854.913 1091.29 1069.23C1126.38 1096.55 1175.5 1152.06 1091.29 1155.59C986.02 1160 956.393 1214.21 834.736 1211.06C713.079 1207.91 611.592 1229.97 422.488 1229.97C233.383 1229.97 315.328 1145.5 214.472 1047.17C113.617 948.835 169.087 985.395 196.823 703.629C224.558 421.863 255.445 768.555 689.125 819.613Z" fill="#D9D9D9"/>
</mask>
<g mask="url(#mask0_109_287)">
<line y1="-0.630349" x2="1511.58" y2="-0.630349" transform="matrix(-1 0 0 1 1506.67 684.234)" stroke="white" stroke-opacity="0.09" stroke-width="1.2607"/>
<line y1="-0.630349" x2="1511.58" y2="-0.630349" transform="matrix(-1 0 0 1 1506.67 1006.97)" stroke="white" stroke-opacity="0.09" stroke-width="1.2607"/>
<line y1="-0.630349" x2="1511.58" y2="-0.630349" transform="matrix(-1 0 0 1 1506.67 361.496)" stroke="white" stroke-opacity="0.09" stroke-width="1.2607"/>
<line y1="-0.630349" x2="1511.58" y2="-0.630349" transform="matrix(-1 0 0 1 1506.67 38.7554)" stroke="white" stroke-opacity="0.09" stroke-width="1.2607"/>
<line y1="-0.630349" x2="1511.58" y2="-0.630349" transform="matrix(-1 0 0 1 1506.67 1168.34)" stroke="white" stroke-opacity="0.09" stroke-width="1.2607"/>
<line y1="-0.630349" x2="1511.58" y2="-0.630349" transform="matrix(-1 0 0 1 1506.67 522.864)" stroke="white" stroke-opacity="0.09" stroke-width="1.2607"/>
<line y1="-0.630349" x2="1511.58" y2="-0.630349" transform="matrix(-1 0 0 1 1506.67 845.602)" stroke="white" stroke-opacity="0.09" stroke-width="1.2607"/>
<line y1="-0.630349" x2="1511.58" y2="-0.630349" transform="matrix(-1 0 0 1 1506.67 200.125)" stroke="white" stroke-opacity="0.09" stroke-width="1.2607"/>
<line y1="-0.630349" x2="1511.58" y2="-0.630349" transform="matrix(-1 0 0 1 1506.67 1249.02)" stroke="white" stroke-opacity="0.09" stroke-width="1.2607"/>
<line y1="-0.630349" x2="1511.58" y2="-0.630349" transform="matrix(-1 0 0 1 1506.67 603.549)" stroke="white" stroke-opacity="0.09" stroke-width="1.2607"/>
<line y1="-0.630349" x2="1511.58" y2="-0.630349" transform="matrix(-1 0 0 1 1506.67 926.287)" stroke="white" stroke-opacity="0.09" stroke-width="1.2607"/>
<line y1="-0.630349" x2="1511.58" y2="-0.630349" transform="matrix(-1 0 0 1 1506.67 280.811)" stroke="white" stroke-opacity="0.09" stroke-width="1.2607"/>
<line y1="-0.630349" x2="1511.58" y2="-0.630349" transform="matrix(-1 0 0 1 1506.67 1087.66)" stroke="white" stroke-opacity="0.09" stroke-width="1.2607"/>
<line y1="-0.630349" x2="1511.58" y2="-0.630349" transform="matrix(-1 0 0 1 1506.67 442.179)" stroke="white" stroke-opacity="0.09" stroke-width="1.2607"/>
<line y1="-0.630349" x2="1511.58" y2="-0.630349" transform="matrix(-1 0 0 1 1506.67 764.919)" stroke="white" stroke-opacity="0.09" stroke-width="1.2607"/>
<line y1="-0.630349" x2="1511.58" y2="-0.630349" transform="matrix(-1 0 0 1 1506.67 119.44)" stroke="white" stroke-opacity="0.09" stroke-width="1.2607"/>
<rect width="80.2262" height="80.2262" transform="matrix(-1 0 0 1 427.227 1133.69)" fill="#3C3A97" fill-opacity="0.74"/>
<rect width="80.2262" height="80.2262" transform="matrix(-1 0 0 1 507.453 1042)" fill="#3C3A97" fill-opacity="0.74"/>
<rect width="80.2262" height="81.3723" transform="matrix(-1 0 0 1 508.33 1132.54)" fill="#3C3A97" fill-opacity="0.74"/>
<line y1="-0.630349" x2="1167.41" y2="-0.630349" transform="matrix(4.37114e-08 1 1 -4.37114e-08 1460.02 9.76074)" stroke="white" stroke-opacity="0.09" stroke-width="1.2607"/>
<line y1="-0.630349" x2="1167.41" y2="-0.630349" transform="matrix(4.37114e-08 1 1 -4.37114e-08 814.543 9.76074)" stroke="white" stroke-opacity="0.09" stroke-width="1.2607"/>
<line y1="-0.630349" x2="1167.41" y2="-0.630349" transform="matrix(4.37114e-08 1 1 -4.37114e-08 1137.28 9.76074)" stroke="white" stroke-opacity="0.09" stroke-width="1.2607"/>
<line y1="-0.630349" x2="1167.41" y2="-0.630349" transform="matrix(4.37114e-08 1 1 -4.37114e-08 491.807 9.76074)" stroke="white" stroke-opacity="0.09" stroke-width="1.2607"/>
<line y1="-0.630349" x2="1167.41" y2="-0.630349" transform="matrix(4.37114e-08 1 1 -4.37114e-08 169.066 9.76074)" stroke="white" stroke-opacity="0.09" stroke-width="1.2607"/>
<line y1="-0.630349" x2="1167.41" y2="-0.630349" transform="matrix(4.37114e-08 1 1 -4.37114e-08 1298.65 9.76074)" stroke="white" stroke-opacity="0.09" stroke-width="1.2607"/>
<line y1="-0.630349" x2="1167.41" y2="-0.630349" transform="matrix(4.37114e-08 1 1 -4.37114e-08 653.178 9.76074)" stroke="white" stroke-opacity="0.09" stroke-width="1.2607"/>
<line y1="-0.630349" x2="1167.41" y2="-0.630349" transform="matrix(4.37114e-08 1 1 -4.37114e-08 975.912 9.76074)" stroke="white" stroke-opacity="0.09" stroke-width="1.2607"/>
<line y1="-0.630349" x2="1167.41" y2="-0.630349" transform="matrix(4.37114e-08 1 1 -4.37114e-08 330.436 9.76074)" stroke="white" stroke-opacity="0.09" stroke-width="1.2607"/>
<line y1="-0.630349" x2="1167.41" y2="-0.630349" transform="matrix(4.37114e-08 1 1 -4.37114e-08 7.69531 9.76074)" stroke="white" stroke-opacity="0.09" stroke-width="1.2607"/>
<line y1="-0.630349" x2="1167.41" y2="-0.630349" transform="matrix(4.37114e-08 1 1 -4.37114e-08 1379.34 9.76074)" stroke="white" stroke-opacity="0.09" stroke-width="1.2607"/>
<line y1="-0.630349" x2="1167.41" y2="-0.630349" transform="matrix(4.37114e-08 1 1 -4.37114e-08 733.859 9.76074)" stroke="white" stroke-opacity="0.09" stroke-width="1.2607"/>
<line y1="-0.630349" x2="1167.41" y2="-0.630349" transform="matrix(4.37114e-08 1 1 -4.37114e-08 1056.6 9.76074)" stroke="white" stroke-opacity="0.09" stroke-width="1.2607"/>
<line y1="-0.630349" x2="1167.41" y2="-0.630349" transform="matrix(4.37114e-08 1 1 -4.37114e-08 411.119 9.76074)" stroke="white" stroke-opacity="0.09" stroke-width="1.2607"/>
<line y1="-0.630349" x2="1167.41" y2="-0.630349" transform="matrix(4.37114e-08 1 1 -4.37114e-08 88.3828 9.76074)" stroke="white" stroke-opacity="0.09" stroke-width="1.2607"/>
<line y1="-0.630349" x2="1167.41" y2="-0.630349" transform="matrix(4.37114e-08 1 1 -4.37114e-08 1217.97 9.76074)" stroke="white" stroke-opacity="0.09" stroke-width="1.2607"/>
<line y1="-0.630349" x2="1167.41" y2="-0.630349" transform="matrix(4.37114e-08 1 1 -4.37114e-08 572.49 9.76074)" stroke="white" stroke-opacity="0.09" stroke-width="1.2607"/>
<line y1="-0.630349" x2="1167.41" y2="-0.630349" transform="matrix(4.37114e-08 1 1 -4.37114e-08 895.23 9.76074)" stroke="white" stroke-opacity="0.09" stroke-width="1.2607"/>
<line y1="-0.630349" x2="1167.41" y2="-0.630349" transform="matrix(4.37114e-08 1 1 -4.37114e-08 249.754 9.76074)" stroke="white" stroke-opacity="0.09" stroke-width="1.2607"/>
<g opacity="0.7">
<rect width="80.2262" height="80.2262" transform="matrix(-1 0 0 1 651.295 829.429)" fill="#1C2160" fill-opacity="0.57"/>
<rect width="80.2262" height="80.2262" transform="matrix(-1 0 0 1 1054.72 829.43)" fill="#24613D" fill-opacity="0.25"/>
<rect width="80.2262" height="79.0801" transform="matrix(-1 0 0 1 328.098 265.554)" fill="#24613D" fill-opacity="0.11"/>
<rect width="80.2262" height="79.0801" transform="matrix(-1 0 0 1 974.492 185.328)" fill="#0DA932" fill-opacity="0.31"/>
<rect width="80.2262" height="79.0801" transform="matrix(-1 0 0 1 409.469 345.78)" fill="#24613D" fill-opacity="0.11"/>
<rect width="80.2262" height="79.0801" transform="matrix(-1 0 0 1 1055.86 265.554)" fill="#0DA932" fill-opacity="0.31"/>
<rect width="80.2262" height="79.0801" transform="matrix(-1 0 0 1 409.471 265.554)" fill="#24613D" fill-opacity="0.11"/>
<rect width="80.2262" height="79.0801" transform="matrix(-1 0 0 1 1055.87 185.328)" fill="#0DA932" fill-opacity="0.31"/>
<rect width="80.2262" height="80.2262" transform="matrix(-1 0 0 1 1134.94 829.43)" fill="#6963EB" fill-opacity="0.25"/>
<rect width="80.2262" height="81.3723" transform="matrix(-1 0 0 1 1134.94 909.656)" fill="#24613D" fill-opacity="0.25"/>
<rect width="80.2262" height="80.2262" transform="matrix(-1 0 0 1 1296.54 749.203)" fill="#24613D" fill-opacity="0.25"/>
<rect width="80.2262" height="80.2262" transform="matrix(-1 0 0 1 489.695 103.955)" fill="#3C3A97" fill-opacity="0.74"/>
<rect width="80.2262" height="80.2262" transform="matrix(-1 0 0 1 569.922 12.2681)" fill="#3C3A97" fill-opacity="0.74"/>
<rect width="80.2262" height="81.3723" transform="matrix(-1 0 0 1 570.799 102.809)" fill="#3C3A97" fill-opacity="0.74"/>
<rect width="81.3723" height="82.5184" transform="matrix(-1 0 0 1 1296.54 183.035)" fill="#3E25FA" fill-opacity="0.24"/>
<rect width="81.3723" height="80.2262" transform="matrix(-1 0 0 1 1377.91 102.809)" fill="#3E25FA" fill-opacity="0.24"/>
<rect width="81.3723" height="80.2262" transform="matrix(-1 0 0 1 1458.14 103.955)" fill="#0D92F4" fill-opacity="0.24"/>
<rect width="81.3723" height="82.5184" transform="matrix(-1 0 0 1 1377.91 183.035)" fill="#3E25FA" fill-opacity="0.24"/>
<rect width="81.3723" height="80.2262" transform="matrix(-1 0 0 1 1054.72 22.583)" fill="#342193"/>
<rect width="80.2262" height="81.3723" transform="matrix(-1 0 0 1 1296.54 344.634)" fill="#0D92F4" fill-opacity="0.24"/>
<rect width="80.2262" height="80.2262" transform="matrix(-1 0 0 1 328.098 749.203)" fill="#1A2254" fill-opacity="0.26"/>
<rect width="80.2262" height="80.2262" transform="matrix(-1 0 0 1 247.871 829.429)" fill="#0D92F4" fill-opacity="0.26"/>
<rect width="80.2262" height="80.2262" transform="matrix(-1 0 0 1 1372.23 606.688)" fill="#3C3A97" fill-opacity="0.61"/>
<rect width="80.2262" height="80.2262" transform="matrix(-1 0 0 1 1452.45 515)" fill="#3C3A97" fill-opacity="0.61"/>
<rect width="80.2262" height="81.3723" transform="matrix(-1 0 0 1 1453.33 605.542)" fill="#3C3A97" fill-opacity="0.61"/>
</g>
</g>
<rect width="80.2262" height="80.2262" transform="matrix(-1 0 0 1 1444.72 1434.43)" fill="#24613D" fill-opacity="0.25"/>
</g>
<defs>
<linearGradient id="paint0_linear_109_287" x1="1282.91" y1="35.4589" x2="828.433" y2="277.513" gradientUnits="userSpaceOnUse">
<stop stop-color="white"/>
<stop offset="1" stop-color="white" stop-opacity="0"/>
</linearGradient>
<radialGradient id="paint1_radial_109_287" cx="0" cy="0" r="1" gradientUnits="userSpaceOnUse" gradientTransform="translate(1317.58 996.112) rotate(-150.607) scale(777.019 1335.47)">
<stop stop-color="white"/>
<stop offset="1" stop-color="white" stop-opacity="0"/>
</radialGradient>
<clipPath id="clip0_109_287">
<rect width="1744" height="1532" fill="white"/>
</clipPath>
</defs>
</svg>
