<svg width="191" height="310" viewBox="0 0 191 310" fill="none" xmlns="http://www.w3.org/2000/svg">
<path d="M176.062 309.792C176.062 309.792 167.992 238.636 132.713 224.148C97.4345 209.66 33.6905 206.337 17.3515 104.817C7.78654 45.3827 2.72455 19.5177 0.172549 8.28766C-0.823451 3.90666 2.62454 -0.214344 7.11154 0.00865614C38.8515 1.58066 142.657 11.7427 173.166 77.4427C209.335 155.331 176.062 309.792 176.062 309.792Z" fill="url(#paint0_linear_13_390)"/>
<path d="M34.8925 25.1136C37.5935 26.9356 40.1985 28.8046 42.7865 30.7306C44.0825 31.6886 45.3525 32.6756 46.6215 33.6666C47.8875 34.6606 49.1755 35.6296 50.4185 36.6516C52.9215 38.6746 55.4395 40.6846 57.8845 42.7776L61.5805 45.8886L65.2075 49.0776L68.8175 52.2886L72.3545 55.5776C74.7195 57.7646 77.0795 59.9586 79.3645 62.2296C84.0125 66.6946 88.4525 71.3656 92.9325 76.0026C97.2795 80.7606 101.687 85.4726 105.82 90.4256L108.966 94.1016L110.539 95.9396L112.058 97.8226L118.118 105.37L119.623 107.265L121.069 109.206L123.961 113.088L126.853 116.971L128.299 118.913L129.683 120.899C133.33 126.236 137.128 131.427 140.527 137.008C141.42 138.37 142.215 139.789 143.043 141.189C143.86 142.595 144.699 143.989 145.498 145.406L147.821 149.695L148.98 151.841L150.072 154.021L152.255 158.381L154.307 162.802C155.714 165.733 156.892 168.761 158.18 171.742C163.035 183.785 167.096 196.138 170.165 208.726C173.322 221.291 175.54 234.069 177.022 246.912C177.731 253.339 178.241 259.784 178.544 266.241C178.856 272.714 178.947 279.13 178.622 285.697C178.563 286.886 177.552 287.802 176.363 287.744C175.218 287.687 174.326 286.747 174.314 285.616L174.313 285.522C174.203 272.951 173.11 260.18 171.3 247.639C169.509 235.07 167.038 222.604 163.8 210.355C160.574 198.102 156.564 186.071 151.761 174.381C146.847 162.745 141.303 151.36 134.629 140.656C121.154 119.216 105.507 98.9736 88.6745 79.8986L82.2385 72.8416C80.1215 70.4606 77.8495 68.2276 75.6705 65.9036C73.4955 63.5746 71.2465 61.3186 68.9895 59.0696L65.6135 55.6846L62.1635 52.3766C53.0255 43.5016 43.4565 34.9836 33.4865 27.1156L33.4515 27.0886C32.9215 26.6696 32.8305 25.9006 33.2485 25.3706C33.6465 24.8646 34.3675 24.7616 34.8925 25.1136Z" fill="white"/>
<defs>
<linearGradient id="paint0_linear_13_390" x1="24.0287" y1="165.115" x2="188.747" y2="140.039" gradientUnits="userSpaceOnUse">
<stop stop-color="#808080"/>
<stop offset="0.4982"/>
<stop offset="0.9964" stop-color="#FFFF00"/>
</linearGradient>
</defs>
</svg>
