<svg width="140" height="370" viewBox="0 0 140 370" fill="none" xmlns="http://www.w3.org/2000/svg">
<path d="M26.5854 367.293C22.2984 371.149 15.4654 369.374 13.5274 363.943C2.83043 333.976 -19.7496 246.514 37.2444 152.614C85.3734 73.3203 103.935 25.7503 110.865 3.57029C112.331 -1.11971 118.931 -1.21271 120.538 3.43129C138.259 54.6623 181.944 227.554 26.5854 367.293Z" fill="url(#paint0_linear_13_392)"/>
<path d="M22.0027 357.995C21.9377 357.995 21.8717 357.992 21.8047 357.985C20.7057 357.878 19.9017 356.899 20.0097 355.8C20.1467 354.398 34.4808 214.273 96.3968 101.041C96.9268 100.072 98.1417 99.7156 99.1107 100.246C100.08 100.776 100.436 101.991 99.9057 102.96C38.3767 215.484 24.1267 354.796 23.9897 356.19C23.8897 357.223 23.0197 357.995 22.0027 357.995Z" fill="#24286C"/>
<defs>
<linearGradient id="paint0_linear_13_392" x1="-47.3727" y1="306.623" x2="185.113" y2="64.6758" gradientUnits="userSpaceOnUse">
<stop stop-color="#233894"/>
<stop offset="0.9964" stop-color="#DD397A"/>
</linearGradient>
</defs>
</svg>
