<svg width="372" height="277" viewBox="0 0 372 277" fill="none" xmlns="http://www.w3.org/2000/svg">
<path d="M0.0780651 18.873L19.4062 260.745C20.1226 269.711 28.2941 276.625 38.082 276.548L345.115 274.14C355.091 274.062 363.22 266.759 363.526 257.601L371.398 21.2048C371.716 11.6539 363.43 3.72799 353.025 3.63196L18.7913 0.563971C7.92329 0.463649 -0.717633 8.91847 0.0780651 18.873Z" fill="url(#paint0_linear_110_882)"/>
<path opacity="0.75" d="M21.1192 47.3043L37.2864 253.433C37.6822 258.483 42.2785 262.384 47.7918 262.348L332.841 260.53C338.564 260.494 343.194 256.242 343.234 250.986L344.754 51.9744C344.794 46.7138 340.221 42.4031 334.494 42.3026L31.7559 37.0036C25.6028 36.8967 20.6765 41.6663 21.1192 47.3043Z" fill="white"/>
<path opacity="0.75" d="M20.6733 20.416C20.8897 24.2801 24.3697 27.3071 28.5819 27.2974L143.435 27.0244C147.796 27.0144 151.324 23.7609 151.318 19.7557L151.313 16.9856C151.307 12.9009 147.632 9.62672 143.186 9.74447L28.3375 12.7865C23.9064 12.9053 20.4455 16.3488 20.6733 20.416Z" fill="white"/>
<defs>
<linearGradient id="paint0_linear_110_882" x1="305.993" y1="-9.37275" x2="0.322209" y2="418.779" gradientUnits="userSpaceOnUse">
<stop stop-color="#A737D5"/>
<stop offset="1" stop-color="#EF497A"/>
</linearGradient>
</defs>
</svg>
